<?xml version="1.0" encoding="UTF-8" standalone="no"?>
<!DOCTYPE svg PUBLIC "-//W3C//DTD SVG 1.1//EN"
 "http://www.w3.org/Graphics/SVG/1.1/DTD/svg11.dtd">
<!-- Generated by graphviz version 2.38.0 (20140413.2041)
 -->
<!-- Title: models_diagram Pages: 1 -->
<svg width="482pt" height="646pt"
 viewBox="0.00 0.00 481.55 646.00" xmlns="http://www.w3.org/2000/svg" xmlns:xlink="http://www.w3.org/1999/xlink">
<g id="graph0" class="graph" transform="scale(1 1) rotate(0) translate(4 642)">
<title>models_diagram</title>
<polygon fill="none" stroke="none" points="-4,4 -4,-642 477.55,-642 477.55,4 -4,4"/>
<!-- _diagram_info -->
<g id="node1" class="node"><title>_diagram_info</title>
<text text-anchor="start" x="8" y="-616.6" font-family="Times,serif" font-size="13.00">Models diagram</text>
<text text-anchor="start" x="8" y="-603.6" font-family="Times,serif" font-size="13.00">Date: Aug 01 2016 &#45; 19:09</text>
<text text-anchor="start" x="8" y="-590.6" font-family="Times,serif" font-size="13.00">Migration version: 20160801220639</text>
<text text-anchor="start" x="8" y="-577.6" font-family="Times,serif" font-size="13.00">Generated by RailRoady 1.5.1</text>
<text text-anchor="start" x="8" y="-564.6" font-family="Times,serif" font-size="13.00">http://railroady.prestonlee.com</text>
</g>
<!-- Genre -->
<g id="node2" class="node"><title>Genre</title>
<path fill="none" stroke="black" d="M237.825,-551.5C237.825,-551.5 461.55,-551.5 461.55,-551.5 467.55,-551.5 473.55,-557.5 473.55,-563.5 473.55,-563.5 473.55,-625.5 473.55,-625.5 473.55,-631.5 467.55,-637.5 461.55,-637.5 461.55,-637.5 237.825,-637.5 237.825,-637.5 231.825,-637.5 225.825,-631.5 225.825,-625.5 225.825,-625.5 225.825,-563.5 225.825,-563.5 225.825,-557.5 231.825,-551.5 237.825,-551.5"/>
<text text-anchor="middle" x="349.688" y="-622.3" font-family="Times,serif" font-size="14.00">Genre</text>
<polyline fill="none" stroke="black" points="225.825,-615.5 473.55,-615.5 "/>
<text text-anchor="start" x="233.825" y="-600.3" font-family="Times,serif" font-size="14.00">id :integer</text>
<text text-anchor="start" x="233.825" y="-586.3" font-family="Times,serif" font-size="14.00">name :character varying</text>
<text text-anchor="start" x="233.825" y="-572.3" font-family="Times,serif" font-size="14.00">created_at :timestamp without time zone</text>
<text text-anchor="start" x="233.825" y="-558.3" font-family="Times,serif" font-size="14.00">updated_at :timestamp without time zone</text>
</g>
<!-- Song -->
<g id="node3" class="node"><title>Song</title>
<path fill="none" stroke="black" d="M237.825,-400.5C237.825,-400.5 461.55,-400.5 461.55,-400.5 467.55,-400.5 473.55,-406.5 473.55,-412.5 473.55,-412.5 473.55,-502.5 473.55,-502.5 473.55,-508.5 467.55,-514.5 461.55,-514.5 461.55,-514.5 237.825,-514.5 237.825,-514.5 231.825,-514.5 225.825,-508.5 225.825,-502.5 225.825,-502.5 225.825,-412.5 225.825,-412.5 225.825,-406.5 231.825,-400.5 237.825,-400.5"/>
<text text-anchor="middle" x="349.688" y="-499.3" font-family="Times,serif" font-size="14.00">Song</text>
<polyline fill="none" stroke="black" points="225.825,-492.5 473.55,-492.5 "/>
<text text-anchor="start" x="233.825" y="-477.3" font-family="Times,serif" font-size="14.00">id :integer</text>
<text text-anchor="start" x="233.825" y="-463.3" font-family="Times,serif" font-size="14.00">name :character varying</text>
<text text-anchor="start" x="233.825" y="-449.3" font-family="Times,serif" font-size="14.00">duration :integer</text>
<text text-anchor="start" x="233.825" y="-435.3" font-family="Times,serif" font-size="14.00">genre_id :integer</text>
<text text-anchor="start" x="233.825" y="-421.3" font-family="Times,serif" font-size="14.00">created_at :timestamp without time zone</text>
<text text-anchor="start" x="233.825" y="-407.3" font-family="Times,serif" font-size="14.00">updated_at :timestamp without time zone</text>
</g>
<!-- Genre&#45;&gt;Song -->
<g id="edge1" class="edge"><title>Genre&#45;&gt;Song</title>
<path fill="none" stroke="#2f1a1e" d="M349.688,-543.113C349.688,-537.149 349.688,-530.994 349.688,-524.852"/>
<ellipse fill="none" stroke="#2f1a1e" cx="349.688" cy="-547.156" rx="4" ry="4"/>
<polygon fill="#2f1a1e" stroke="#2f1a1e" points="349.688,-524.563 354.188,-514.563 349.688,-519.563 349.688,-514.563 349.688,-514.563 349.688,-514.563 349.688,-519.563 345.188,-514.563 349.688,-524.563 349.688,-524.563"/>
</g>
<!-- User -->
<g id="node4" class="node"><title>User</title>
<path fill="none" stroke="black" d="M108.053,-151.5C108.053,-151.5 403.323,-151.5 403.323,-151.5 409.323,-151.5 415.323,-157.5 415.323,-163.5 415.323,-163.5 415.323,-351.5 415.323,-351.5 415.323,-357.5 409.323,-363.5 403.323,-363.5 403.323,-363.5 108.053,-363.5 108.053,-363.5 102.053,-363.5 96.053,-357.5 96.053,-351.5 96.053,-351.5 96.053,-163.5 96.053,-163.5 96.053,-157.5 102.053,-151.5 108.053,-151.5"/>
<text text-anchor="middle" x="255.688" y="-348.3" font-family="Times,serif" font-size="14.00">User</text>
<polyline fill="none" stroke="black" points="96.053,-341.5 415.323,-341.5 "/>
<text text-anchor="start" x="104.053" y="-326.3" font-family="Times,serif" font-size="14.00">updated_at :timestamp without time zone</text>
<text text-anchor="start" x="104.053" y="-312.3" font-family="Times,serif" font-size="14.00">email :character varying</text>
<text text-anchor="start" x="104.053" y="-298.3" font-family="Times,serif" font-size="14.00">encrypted_password :character varying</text>
<text text-anchor="start" x="104.053" y="-284.3" font-family="Times,serif" font-size="14.00">reset_password_token :character varying</text>
<text text-anchor="start" x="104.053" y="-270.3" font-family="Times,serif" font-size="14.00">reset_password_sent_at :timestamp without time zone</text>
<text text-anchor="start" x="104.053" y="-256.3" font-family="Times,serif" font-size="14.00">remember_created_at :timestamp without time zone</text>
<text text-anchor="start" x="104.053" y="-242.3" font-family="Times,serif" font-size="14.00">sign_in_count :integer</text>
<text text-anchor="start" x="104.053" y="-228.3" font-family="Times,serif" font-size="14.00">current_sign_in_at :timestamp without time zone</text>
<text text-anchor="start" x="104.053" y="-214.3" font-family="Times,serif" font-size="14.00">last_sign_in_at :timestamp without time zone</text>
<text text-anchor="start" x="104.053" y="-200.3" font-family="Times,serif" font-size="14.00">current_sign_in_ip :inet</text>
<text text-anchor="start" x="104.053" y="-186.3" font-family="Times,serif" font-size="14.00">last_sign_in_ip :inet</text>
<text text-anchor="start" x="104.053" y="-172.3" font-family="Times,serif" font-size="14.00">created_at :timestamp without time zone</text>
<text text-anchor="start" x="104.053" y="-158.3" font-family="Times,serif" font-size="14.00">id :integer</text>
</g>
<!-- Song&#45;&gt;User -->
<g id="edge3" class="edge"><title>Song&#45;&gt;User</title>
<path fill="none" stroke="#d0ed98" d="M318.678,-391.182C315.84,-385.204 312.914,-379.04 309.948,-372.793"/>
<polygon fill="#d0ed98" stroke="#d0ed98" points="318.714,-391.257 318.937,-402.221 320.858,-395.774 323.003,-400.291 323.003,-400.291 323.003,-400.291 320.858,-395.774 327.068,-398.361 318.714,-391.257 318.714,-391.257"/>
<polygon fill="#d0ed98" stroke="#d0ed98" points="309.869,-372.626 309.645,-361.662 307.724,-368.109 305.58,-363.592 305.58,-363.592 305.58,-363.592 307.724,-368.109 301.515,-365.522 309.869,-372.626 309.869,-372.626"/>
</g>
<!-- UserSong -->
<g id="node5" class="node"><title>UserSong</title>
<path fill="none" stroke="black" d="M237.825,-0.5C237.825,-0.5 461.55,-0.5 461.55,-0.5 467.55,-0.5 473.55,-6.5 473.55,-12.5 473.55,-12.5 473.55,-102.5 473.55,-102.5 473.55,-108.5 467.55,-114.5 461.55,-114.5 461.55,-114.5 237.825,-114.5 237.825,-114.5 231.825,-114.5 225.825,-108.5 225.825,-102.5 225.825,-102.5 225.825,-12.5 225.825,-12.5 225.825,-6.5 231.825,-0.5 237.825,-0.5"/>
<text text-anchor="middle" x="349.688" y="-99.3" font-family="Times,serif" font-size="14.00">UserSong</text>
<polyline fill="none" stroke="black" points="225.825,-92.5 473.55,-92.5 "/>
<text text-anchor="start" x="233.825" y="-77.3" font-family="Times,serif" font-size="14.00">id :integer</text>
<text text-anchor="start" x="233.825" y="-63.3" font-family="Times,serif" font-size="14.00">position :integer</text>
<text text-anchor="start" x="233.825" y="-49.3" font-family="Times,serif" font-size="14.00">user_id :integer</text>
<text text-anchor="start" x="233.825" y="-35.3" font-family="Times,serif" font-size="14.00">song_id :integer</text>
<text text-anchor="start" x="233.825" y="-21.3" font-family="Times,serif" font-size="14.00">created_at :timestamp without time zone</text>
<text text-anchor="start" x="233.825" y="-7.3" font-family="Times,serif" font-size="14.00">updated_at :timestamp without time zone</text>
</g>
<!-- Song&#45;&gt;UserSong -->
<g id="edge2" class="edge"><title>Song&#45;&gt;UserSong</title>
<path fill="none" stroke="#1db592" d="M409.572,-393.579C415.726,-384.233 421.047,-374.271 424.688,-364 456.316,-274.773 456.316,-240.227 424.688,-151 421.259,-141.328 416.341,-131.928 410.639,-123.06"/>
<ellipse fill="none" stroke="#1db592" cx="407.226" cy="-396.979" rx="4.00002" ry="4.00002"/>
<polygon fill="#1db592" stroke="#1db592" points="410.591,-122.99 408.672,-112.193 407.773,-118.859 404.955,-114.729 404.955,-114.729 404.955,-114.729 407.773,-118.859 401.238,-117.265 410.591,-122.99 410.591,-122.99"/>
</g>
<!-- User&#45;&gt;UserSong -->
<g id="edge4" class="edge"><title>User&#45;&gt;UserSong</title>
<path fill="none" stroke="#2b9f99" d="M309.095,-144.004C312.328,-137.194 315.52,-130.471 318.608,-123.966"/>
<ellipse fill="none" stroke="#2b9f99" cx="307.293" cy="-147.799" rx="4.00002" ry="4.00002"/>
<polygon fill="#2b9f99" stroke="#2b9f99" points="318.762,-123.642 327.116,-116.538 320.906,-119.125 323.05,-114.609 323.05,-114.609 323.05,-114.609 320.906,-119.125 318.985,-112.679 318.762,-123.642 318.762,-123.642"/>
</g>
</g>
</svg>
